<mxfile host="app.diagrams.net" modified="2023-11-23T02:40:10.509Z" agent="Mozilla/5.0 (Windows NT 10.0; Win64; x64) AppleWebKit/537.36 (KHTML, like Gecko) Chrome/119.0.0.0 Safari/537.36" etag="EVZvYJIASRWOjy2gYL4Y" version="22.1.3" type="device" pages="2">
  <diagram name="Class diagram" id="Sz-jfcqSTvomQZ3v9GEw">
    <mxGraphModel dx="830" dy="447" grid="1" gridSize="10" guides="1" tooltips="1" connect="1" arrows="1" fold="1" page="1" pageScale="1" pageWidth="827" pageHeight="1169" math="0" shadow="0">
      <root>
        <mxCell id="0" />
        <mxCell id="1" parent="0" />
        <mxCell id="g-6qzC0ybE8QJGl4DfPx-1" value="CommandProcessor" style="swimlane;fontStyle=1;align=center;verticalAlign=top;childLayout=stackLayout;horizontal=1;startSize=26;horizontalStack=0;resizeParent=1;resizeParentMax=0;resizeLast=0;collapsible=1;marginBottom=0;whiteSpace=wrap;html=1;" vertex="1" parent="1">
          <mxGeometry x="210" y="58" width="290" height="112" as="geometry" />
        </mxCell>
        <mxCell id="g-6qzC0ybE8QJGl4DfPx-2" value="- _commandTypes: List&amp;lt;Command&amp;gt;" style="text;strokeColor=none;fillColor=none;align=left;verticalAlign=top;spacingLeft=4;spacingRight=4;overflow=hidden;rotatable=0;points=[[0,0.5],[1,0.5]];portConstraint=eastwest;whiteSpace=wrap;html=1;" vertex="1" parent="g-6qzC0ybE8QJGl4DfPx-1">
          <mxGeometry y="26" width="290" height="26" as="geometry" />
        </mxCell>
        <mxCell id="lzUcdvp9agMLy7oaU6j2-1" value="- _currentTypes: Command" style="text;strokeColor=none;fillColor=none;align=left;verticalAlign=top;spacingLeft=4;spacingRight=4;overflow=hidden;rotatable=0;points=[[0,0.5],[1,0.5]];portConstraint=eastwest;whiteSpace=wrap;html=1;" vertex="1" parent="g-6qzC0ybE8QJGl4DfPx-1">
          <mxGeometry y="52" width="290" height="26" as="geometry" />
        </mxCell>
        <mxCell id="g-6qzC0ybE8QJGl4DfPx-3" value="" style="line;strokeWidth=1;fillColor=none;align=left;verticalAlign=middle;spacingTop=-1;spacingLeft=3;spacingRight=3;rotatable=0;labelPosition=right;points=[];portConstraint=eastwest;strokeColor=inherit;" vertex="1" parent="g-6qzC0ybE8QJGl4DfPx-1">
          <mxGeometry y="78" width="290" height="8" as="geometry" />
        </mxCell>
        <mxCell id="opLahnWvFOZADp_zCRkR-1" value="+ ExecuteCommand(Player p, string[] text): string" style="text;strokeColor=none;fillColor=none;align=left;verticalAlign=top;spacingLeft=4;spacingRight=4;overflow=hidden;rotatable=0;points=[[0,0.5],[1,0.5]];portConstraint=eastwest;whiteSpace=wrap;html=1;" vertex="1" parent="g-6qzC0ybE8QJGl4DfPx-1">
          <mxGeometry y="86" width="290" height="26" as="geometry" />
        </mxCell>
        <mxCell id="g-6qzC0ybE8QJGl4DfPx-5" value="MoveCommand" style="html=1;whiteSpace=wrap;" vertex="1" parent="1">
          <mxGeometry x="180" y="260" width="110" height="50" as="geometry" />
        </mxCell>
        <mxCell id="g-6qzC0ybE8QJGl4DfPx-6" value="LookCommand" style="html=1;whiteSpace=wrap;" vertex="1" parent="1">
          <mxGeometry x="400" y="260" width="110" height="50" as="geometry" />
        </mxCell>
        <mxCell id="g-6qzC0ybE8QJGl4DfPx-9" value="" style="endArrow=open;endFill=1;endSize=12;html=1;rounded=0;entryX=0.5;entryY=0;entryDx=0;entryDy=0;" edge="1" parent="1" target="g-6qzC0ybE8QJGl4DfPx-6">
          <mxGeometry width="160" relative="1" as="geometry">
            <mxPoint x="348" y="170" as="sourcePoint" />
            <mxPoint x="500" y="210" as="targetPoint" />
            <Array as="points">
              <mxPoint x="348" y="210" />
              <mxPoint x="455" y="210" />
            </Array>
          </mxGeometry>
        </mxCell>
        <mxCell id="g-6qzC0ybE8QJGl4DfPx-10" value="" style="endArrow=open;endFill=1;endSize=12;html=1;rounded=0;entryX=0.5;entryY=0;entryDx=0;entryDy=0;" edge="1" parent="1">
          <mxGeometry width="160" relative="1" as="geometry">
            <mxPoint x="348" y="170" as="sourcePoint" />
            <mxPoint x="233" y="260" as="targetPoint" />
            <Array as="points">
              <mxPoint x="348" y="210" />
              <mxPoint x="233" y="210" />
            </Array>
          </mxGeometry>
        </mxCell>
      </root>
    </mxGraphModel>
  </diagram>
  <diagram id="1qJB8hhZlbw7YLvAaGdq" name="Sequence diagram">
    <mxGraphModel dx="2012" dy="639" grid="1" gridSize="10" guides="1" tooltips="1" connect="1" arrows="1" fold="1" page="1" pageScale="1" pageWidth="827" pageHeight="1169" math="0" shadow="0">
      <root>
        <mxCell id="0" />
        <mxCell id="1" parent="0" />
        <mxCell id="WGv9tX2G21dpIwWHPqzV-1" value=":CommandProcessor" style="shape=umlLifeline;perimeter=lifelinePerimeter;whiteSpace=wrap;html=1;container=1;dropTarget=0;collapsible=0;recursiveResize=0;outlineConnect=0;portConstraint=eastwest;newEdgeStyle={&quot;curved&quot;:0,&quot;rounded&quot;:0};" vertex="1" parent="1">
          <mxGeometry x="120" y="240" width="130" height="300" as="geometry" />
        </mxCell>
        <mxCell id="WGv9tX2G21dpIwWHPqzV-2" value="" style="html=1;points=[[0,0,0,0,5],[0,1,0,0,-5],[1,0,0,0,5],[1,1,0,0,-5]];perimeter=orthogonalPerimeter;outlineConnect=0;targetShapes=umlLifeline;portConstraint=eastwest;newEdgeStyle={&quot;curved&quot;:0,&quot;rounded&quot;:0};" vertex="1" parent="WGv9tX2G21dpIwWHPqzV-1">
          <mxGeometry x="60" y="60" width="10" height="190" as="geometry" />
        </mxCell>
        <mxCell id="WGv9tX2G21dpIwWHPqzV-6" value="" style="html=1;points=[[0,0,0,0,5],[0,1,0,0,-5],[1,0,0,0,5],[1,1,0,0,-5]];perimeter=orthogonalPerimeter;outlineConnect=0;targetShapes=umlLifeline;portConstraint=eastwest;newEdgeStyle={&quot;curved&quot;:0,&quot;rounded&quot;:0};" vertex="1" parent="WGv9tX2G21dpIwWHPqzV-1">
          <mxGeometry x="67" y="95" width="10" height="125" as="geometry" />
        </mxCell>
        <mxCell id="WGv9tX2G21dpIwWHPqzV-7" value="DetectType&lt;br&gt;(&quot;look&quot;, &quot;at&quot;, &quot;gem&quot;)" style="html=1;verticalAlign=bottom;endArrow=block;curved=0;rounded=0;entryX=1;entryY=0;entryDx=0;entryDy=5;entryPerimeter=0;" edge="1" parent="WGv9tX2G21dpIwWHPqzV-1" source="WGv9tX2G21dpIwWHPqzV-2" target="WGv9tX2G21dpIwWHPqzV-6">
          <mxGeometry x="-0.0079" y="32" width="80" relative="1" as="geometry">
            <mxPoint x="80" y="80" as="sourcePoint" />
            <mxPoint x="150" y="140" as="targetPoint" />
            <Array as="points">
              <mxPoint x="100" y="80" />
            </Array>
            <mxPoint x="9" y="-14" as="offset" />
          </mxGeometry>
        </mxCell>
        <mxCell id="V16zKj3WH-SmfB434Pz4-3" value="return &quot;...&quot;" style="html=1;verticalAlign=bottom;endArrow=open;dashed=1;endSize=8;curved=0;rounded=0;exitX=1;exitY=1;exitDx=0;exitDy=-5;exitPerimeter=0;entryX=1;entryY=1;entryDx=0;entryDy=-5;entryPerimeter=0;" edge="1" parent="WGv9tX2G21dpIwWHPqzV-1" source="WGv9tX2G21dpIwWHPqzV-6" target="WGv9tX2G21dpIwWHPqzV-2">
          <mxGeometry x="-0.0093" y="10" relative="1" as="geometry">
            <mxPoint x="200" y="250" as="sourcePoint" />
            <mxPoint x="120" y="250" as="targetPoint" />
            <Array as="points">
              <mxPoint x="120" y="230" />
            </Array>
            <mxPoint as="offset" />
          </mxGeometry>
        </mxCell>
        <mxCell id="WGv9tX2G21dpIwWHPqzV-3" value=":LookCommand" style="shape=umlLifeline;perimeter=lifelinePerimeter;whiteSpace=wrap;html=1;container=1;dropTarget=0;collapsible=0;recursiveResize=0;outlineConnect=0;portConstraint=eastwest;newEdgeStyle={&quot;curved&quot;:0,&quot;rounded&quot;:0};" vertex="1" parent="1">
          <mxGeometry x="360" y="240" width="100" height="300" as="geometry" />
        </mxCell>
        <mxCell id="WGv9tX2G21dpIwWHPqzV-4" value="" style="html=1;points=[[0,0,0,0,5],[0,1,0,0,-5],[1,0,0,0,5],[1,1,0,0,-5]];perimeter=orthogonalPerimeter;outlineConnect=0;targetShapes=umlLifeline;portConstraint=eastwest;newEdgeStyle={&quot;curved&quot;:0,&quot;rounded&quot;:0};" vertex="1" parent="WGv9tX2G21dpIwWHPqzV-3">
          <mxGeometry x="45" y="110" width="10" height="80" as="geometry" />
        </mxCell>
        <mxCell id="WGv9tX2G21dpIwWHPqzV-5" value="ExecuteCommand&lt;br&gt;(p, [&quot;look&quot;, &quot;at&quot;, &quot;gem&quot;])" style="html=1;verticalAlign=bottom;endArrow=block;curved=0;rounded=0;" edge="1" parent="1">
          <mxGeometry x="-0.3333" width="80" relative="1" as="geometry">
            <mxPoint y="308" as="sourcePoint" />
            <mxPoint x="180" y="308" as="targetPoint" />
            <mxPoint as="offset" />
          </mxGeometry>
        </mxCell>
        <mxCell id="kqwWPtUVwqayH-7PHXix-1" value="Execute(p, [&quot;look&quot;, &quot;at&quot;, &quot;gem&quot;])" style="html=1;verticalAlign=bottom;endArrow=block;curved=0;rounded=0;entryX=0;entryY=0;entryDx=0;entryDy=5;entryPerimeter=0;" edge="1" parent="1" source="WGv9tX2G21dpIwWHPqzV-6" target="WGv9tX2G21dpIwWHPqzV-4">
          <mxGeometry width="80" relative="1" as="geometry">
            <mxPoint x="210" y="360" as="sourcePoint" />
            <mxPoint x="290" y="360" as="targetPoint" />
          </mxGeometry>
        </mxCell>
        <mxCell id="V16zKj3WH-SmfB434Pz4-2" value="return &quot;...&quot;" style="html=1;verticalAlign=bottom;endArrow=open;dashed=1;endSize=8;curved=0;rounded=0;" edge="1" parent="1">
          <mxGeometry relative="1" as="geometry">
            <mxPoint x="405" y="417" as="sourcePoint" />
            <mxPoint x="197" y="417" as="targetPoint" />
          </mxGeometry>
        </mxCell>
        <mxCell id="V16zKj3WH-SmfB434Pz4-4" value="return &quot;...&quot;" style="html=1;verticalAlign=bottom;endArrow=open;dashed=1;endSize=8;curved=0;rounded=0;exitX=0;exitY=1;exitDx=0;exitDy=-5;exitPerimeter=0;" edge="1" parent="1" source="WGv9tX2G21dpIwWHPqzV-2">
          <mxGeometry relative="1" as="geometry">
            <mxPoint x="180" y="480" as="sourcePoint" />
            <mxPoint y="485" as="targetPoint" />
          </mxGeometry>
        </mxCell>
        <mxCell id="V16zKj3WH-SmfB434Pz4-5" value=":CommandProcessor" style="shape=umlLifeline;perimeter=lifelinePerimeter;whiteSpace=wrap;html=1;container=1;dropTarget=0;collapsible=0;recursiveResize=0;outlineConnect=0;portConstraint=eastwest;newEdgeStyle={&quot;curved&quot;:0,&quot;rounded&quot;:0};" vertex="1" parent="1">
          <mxGeometry x="630" y="240" width="130" height="300" as="geometry" />
        </mxCell>
        <mxCell id="V16zKj3WH-SmfB434Pz4-6" value="" style="html=1;points=[[0,0,0,0,5],[0,1,0,0,-5],[1,0,0,0,5],[1,1,0,0,-5]];perimeter=orthogonalPerimeter;outlineConnect=0;targetShapes=umlLifeline;portConstraint=eastwest;newEdgeStyle={&quot;curved&quot;:0,&quot;rounded&quot;:0};" vertex="1" parent="V16zKj3WH-SmfB434Pz4-5">
          <mxGeometry x="60" y="60" width="10" height="190" as="geometry" />
        </mxCell>
        <mxCell id="V16zKj3WH-SmfB434Pz4-7" value="" style="html=1;points=[[0,0,0,0,5],[0,1,0,0,-5],[1,0,0,0,5],[1,1,0,0,-5]];perimeter=orthogonalPerimeter;outlineConnect=0;targetShapes=umlLifeline;portConstraint=eastwest;newEdgeStyle={&quot;curved&quot;:0,&quot;rounded&quot;:0};" vertex="1" parent="V16zKj3WH-SmfB434Pz4-5">
          <mxGeometry x="67" y="95" width="10" height="125" as="geometry" />
        </mxCell>
        <mxCell id="V16zKj3WH-SmfB434Pz4-8" value="DetectType&lt;br&gt;(&quot;move&quot;, &quot;n&quot;)" style="html=1;verticalAlign=bottom;endArrow=block;curved=0;rounded=0;entryX=1;entryY=0;entryDx=0;entryDy=5;entryPerimeter=0;" edge="1" parent="V16zKj3WH-SmfB434Pz4-5" source="V16zKj3WH-SmfB434Pz4-6" target="V16zKj3WH-SmfB434Pz4-7">
          <mxGeometry x="-0.0079" y="22" width="80" relative="1" as="geometry">
            <mxPoint x="80" y="80" as="sourcePoint" />
            <mxPoint x="150" y="140" as="targetPoint" />
            <Array as="points">
              <mxPoint x="100" y="80" />
            </Array>
            <mxPoint x="6" y="-7" as="offset" />
          </mxGeometry>
        </mxCell>
        <mxCell id="V16zKj3WH-SmfB434Pz4-9" value="return &quot;...&quot;" style="html=1;verticalAlign=bottom;endArrow=open;dashed=1;endSize=8;curved=0;rounded=0;exitX=1;exitY=1;exitDx=0;exitDy=-5;exitPerimeter=0;entryX=1;entryY=1;entryDx=0;entryDy=-5;entryPerimeter=0;" edge="1" parent="V16zKj3WH-SmfB434Pz4-5" source="V16zKj3WH-SmfB434Pz4-7" target="V16zKj3WH-SmfB434Pz4-6">
          <mxGeometry x="-0.0093" y="10" relative="1" as="geometry">
            <mxPoint x="200" y="250" as="sourcePoint" />
            <mxPoint x="120" y="250" as="targetPoint" />
            <Array as="points">
              <mxPoint x="120" y="230" />
            </Array>
            <mxPoint as="offset" />
          </mxGeometry>
        </mxCell>
        <mxCell id="V16zKj3WH-SmfB434Pz4-10" value=":MoveCommand" style="shape=umlLifeline;perimeter=lifelinePerimeter;whiteSpace=wrap;html=1;container=1;dropTarget=0;collapsible=0;recursiveResize=0;outlineConnect=0;portConstraint=eastwest;newEdgeStyle={&quot;curved&quot;:0,&quot;rounded&quot;:0};" vertex="1" parent="1">
          <mxGeometry x="870" y="240" width="100" height="300" as="geometry" />
        </mxCell>
        <mxCell id="V16zKj3WH-SmfB434Pz4-11" value="" style="html=1;points=[[0,0,0,0,5],[0,1,0,0,-5],[1,0,0,0,5],[1,1,0,0,-5]];perimeter=orthogonalPerimeter;outlineConnect=0;targetShapes=umlLifeline;portConstraint=eastwest;newEdgeStyle={&quot;curved&quot;:0,&quot;rounded&quot;:0};" vertex="1" parent="V16zKj3WH-SmfB434Pz4-10">
          <mxGeometry x="45" y="110" width="10" height="80" as="geometry" />
        </mxCell>
        <mxCell id="V16zKj3WH-SmfB434Pz4-12" value="ExecuteCommand&lt;br&gt;(p, &quot;move&quot;, &quot;n&quot;)" style="html=1;verticalAlign=bottom;endArrow=block;curved=0;rounded=0;" edge="1" parent="1">
          <mxGeometry x="-0.3333" width="80" relative="1" as="geometry">
            <mxPoint x="510" y="308" as="sourcePoint" />
            <mxPoint x="690" y="308" as="targetPoint" />
            <mxPoint as="offset" />
          </mxGeometry>
        </mxCell>
        <mxCell id="V16zKj3WH-SmfB434Pz4-13" value="Execute(Player p, string[] text)" style="html=1;verticalAlign=bottom;endArrow=block;curved=0;rounded=0;entryX=0;entryY=0;entryDx=0;entryDy=5;entryPerimeter=0;" edge="1" parent="1" source="V16zKj3WH-SmfB434Pz4-7" target="V16zKj3WH-SmfB434Pz4-11">
          <mxGeometry width="80" relative="1" as="geometry">
            <mxPoint x="720" y="360" as="sourcePoint" />
            <mxPoint x="800" y="360" as="targetPoint" />
          </mxGeometry>
        </mxCell>
        <mxCell id="V16zKj3WH-SmfB434Pz4-14" value="return &quot;...&quot;" style="html=1;verticalAlign=bottom;endArrow=open;dashed=1;endSize=8;curved=0;rounded=0;" edge="1" parent="1">
          <mxGeometry relative="1" as="geometry">
            <mxPoint x="915" y="417" as="sourcePoint" />
            <mxPoint x="707" y="417" as="targetPoint" />
          </mxGeometry>
        </mxCell>
        <mxCell id="V16zKj3WH-SmfB434Pz4-15" value="return &quot;...&quot;" style="html=1;verticalAlign=bottom;endArrow=open;dashed=1;endSize=8;curved=0;rounded=0;exitX=0;exitY=1;exitDx=0;exitDy=-5;exitPerimeter=0;" edge="1" parent="1" source="V16zKj3WH-SmfB434Pz4-6">
          <mxGeometry relative="1" as="geometry">
            <mxPoint x="690" y="480" as="sourcePoint" />
            <mxPoint x="510" y="485" as="targetPoint" />
          </mxGeometry>
        </mxCell>
      </root>
    </mxGraphModel>
  </diagram>
</mxfile>
